<svg xmlns="http://www.w3.org/2000/svg" viewBox="0 0 64 64" width="64" height="64">
  <defs>
    <linearGradient id="sg" x1="0%" y1="0%" x2="0%" y2="100%">
      <stop offset="0%" stop-color="#3B82F6"/>
      <stop offset="100%" stop-color="#1D4ED8"/>
    </linearGradient>
    <linearGradient id="cg" x1="0%" y1="0%" x2="100%" y2="100%">
      <stop offset="0%" stop-color="#34D399"/>
      <stop offset="100%" stop-color="#10B981"/>
    </linearGradient>
  </defs>
  <path d="M32 4 L56 14 C56 14 58 42 44 56 C40 61 32 64 32 64 C32 64 24 61 20 56 C6 42 8 14 8 14 Z" fill="url(#sg)"/>
  <path d="M32 10 L50 18 C50 18 51.5 41 40 53 C37 56.5 32 59 32 59 C32 59 27 56.5 24 53 C12.5 41 14 18 14 18 Z" fill="none" stroke="rgba(255,255,255,0.2)" stroke-width="1"/>
  <circle cx="32" cy="26" r="6" fill="white" opacity="0.95"/>
  <line x1="32" y1="32" x2="32" y2="44" stroke="white" stroke-width="2.5" stroke-linecap="round" opacity="0.95"/>
  <path d="M32 32 C32 32 25 36 24 41 C23.5 43 24.5 45 26 45.5" fill="none" stroke="white" stroke-width="2.5" stroke-linecap="round" opacity="0.95"/>
  <path d="M32 32 C32 32 39 36 40 41 C40.5 43 39.5 45 38 45.5" fill="none" stroke="white" stroke-width="2.5" stroke-linecap="round" opacity="0.95"/>
  <path d="M32 44 L28 52" fill="none" stroke="white" stroke-width="2.5" stroke-linecap="round" opacity="0.95"/>
  <path d="M32 44 L36 52" fill="none" stroke="white" stroke-width="2.5" stroke-linecap="round" opacity="0.95"/>
  <g transform="translate(44, 48)">
    <circle cx="0" cy="0" r="9" fill="url(#cg)" stroke="white" stroke-width="2.5"/>
    <path d="M-4 0.5 L-1 3.5 L4.5 -3" fill="none" stroke="white" stroke-width="2.2" stroke-linecap="round" stroke-linejoin="round"/>
  </g>
</svg>
